<mxfile host="app.diagrams.net" modified="2021-03-25T05:05:36.190Z" agent="5.0 (Windows NT 10.0; Win64; x64) AppleWebKit/537.36 (KHTML, like Gecko) Chrome/89.0.4389.90 Safari/537.36" etag="2xypoGGruwyoqiHgqwXM" version="14.5.1" type="github" pages="2">
  <diagram id="d2nrYKhg--hIhlbrpEqw" name="Page-1">
    <mxGraphModel dx="1038" dy="548" grid="0" gridSize="10" guides="1" tooltips="1" connect="1" arrows="1" fold="1" page="0" pageScale="1" pageWidth="850" pageHeight="1100" math="0" shadow="0">
      <root>
        <mxCell id="0" />
        <mxCell id="1" parent="0" />
        <mxCell id="mM3w-Qk913E068bcG6vs-1" value="" style="endArrow=none;html=1;" parent="1" edge="1">
          <mxGeometry width="50" height="50" relative="1" as="geometry">
            <mxPoint x="120" y="160" as="sourcePoint" />
            <mxPoint x="1012" y="160" as="targetPoint" />
          </mxGeometry>
        </mxCell>
        <mxCell id="mM3w-Qk913E068bcG6vs-2" value="level 1" style="text;html=1;strokeColor=none;fillColor=none;align=center;verticalAlign=middle;whiteSpace=wrap;rounded=0;" parent="1" vertex="1">
          <mxGeometry x="1021" y="149" width="40" height="20" as="geometry" />
        </mxCell>
        <mxCell id="mM3w-Qk913E068bcG6vs-3" value="" style="endArrow=none;html=1;" parent="1" edge="1">
          <mxGeometry width="50" height="50" relative="1" as="geometry">
            <mxPoint x="120" y="280" as="sourcePoint" />
            <mxPoint x="1015" y="280" as="targetPoint" />
          </mxGeometry>
        </mxCell>
        <mxCell id="mM3w-Qk913E068bcG6vs-4" value="level 2" style="text;html=1;strokeColor=none;fillColor=none;align=center;verticalAlign=middle;whiteSpace=wrap;rounded=0;" parent="1" vertex="1">
          <mxGeometry x="1021" y="268" width="40" height="20" as="geometry" />
        </mxCell>
        <mxCell id="mM3w-Qk913E068bcG6vs-5" value="" style="endArrow=none;html=1;" parent="1" edge="1">
          <mxGeometry width="50" height="50" relative="1" as="geometry">
            <mxPoint x="120" y="400" as="sourcePoint" />
            <mxPoint x="1010" y="400" as="targetPoint" />
          </mxGeometry>
        </mxCell>
        <mxCell id="mM3w-Qk913E068bcG6vs-6" value="level 3" style="text;html=1;strokeColor=none;fillColor=none;align=center;verticalAlign=middle;whiteSpace=wrap;rounded=0;" parent="1" vertex="1">
          <mxGeometry x="1021" y="392" width="40" height="20" as="geometry" />
        </mxCell>
        <mxCell id="mM3w-Qk913E068bcG6vs-7" value="Creation of Dummy table in Firestore for UI purpose" style="rounded=1;whiteSpace=wrap;html=1;" parent="1" vertex="1">
          <mxGeometry x="160" y="80" width="310" height="40" as="geometry" />
        </mxCell>
        <mxCell id="mM3w-Qk913E068bcG6vs-8" value="Accessing the table data with API calls" style="rounded=1;whiteSpace=wrap;html=1;" parent="1" vertex="1">
          <mxGeometry x="160" y="180" width="230" height="40" as="geometry" />
        </mxCell>
        <mxCell id="mM3w-Qk913E068bcG6vs-9" value="Adding new rows in table with POST REST API calls" style="rounded=1;whiteSpace=wrap;html=1;" parent="1" vertex="1">
          <mxGeometry x="160" y="220" width="320" height="40" as="geometry" />
        </mxCell>
        <mxCell id="mM3w-Qk913E068bcG6vs-11" value="Integrating security for API calls" style="rounded=1;whiteSpace=wrap;html=1;" parent="1" vertex="1">
          <mxGeometry x="160" y="440" width="200" height="40" as="geometry" />
        </mxCell>
        <mxCell id="mM3w-Qk913E068bcG6vs-12" value="" style="endArrow=none;html=1;" parent="1" edge="1">
          <mxGeometry width="50" height="50" relative="1" as="geometry">
            <mxPoint x="120" y="520" as="sourcePoint" />
            <mxPoint x="1012" y="520" as="targetPoint" />
          </mxGeometry>
        </mxCell>
        <mxCell id="mM3w-Qk913E068bcG6vs-13" value="level 4" style="text;html=1;strokeColor=none;fillColor=none;align=center;verticalAlign=middle;whiteSpace=wrap;rounded=0;" parent="1" vertex="1">
          <mxGeometry x="1021" y="509" width="40" height="20" as="geometry" />
        </mxCell>
        <mxCell id="mM3w-Qk913E068bcG6vs-14" value="Creating database for Pub/Sub" style="rounded=1;whiteSpace=wrap;html=1;" parent="1" vertex="1">
          <mxGeometry x="640" y="80" width="280" height="40" as="geometry" />
        </mxCell>
        <mxCell id="mM3w-Qk913E068bcG6vs-16" value="Transferring data from Pub/Sub to database using CF" style="rounded=1;whiteSpace=wrap;html=1;" parent="1" vertex="1">
          <mxGeometry x="640" y="200" width="320" height="40" as="geometry" />
        </mxCell>
        <mxCell id="mM3w-Qk913E068bcG6vs-17" value="Integration of Pub/Sub data and UI required datatable for responding to Hardware and UI" style="rounded=1;whiteSpace=wrap;html=1;" parent="1" vertex="1">
          <mxGeometry x="220" y="320" width="750" height="40" as="geometry" />
        </mxCell>
        <mxCell id="mM3w-Qk913E068bcG6vs-18" value="Encoding and Decoding using ASN" style="rounded=1;whiteSpace=wrap;html=1;" parent="1" vertex="1">
          <mxGeometry x="640" y="440" width="320" height="40" as="geometry" />
        </mxCell>
        <mxCell id="mM3w-Qk913E068bcG6vs-19" value="Further enhancements" style="rounded=1;whiteSpace=wrap;html=1;" parent="1" vertex="1">
          <mxGeometry x="404" y="588" width="280" height="40" as="geometry" />
        </mxCell>
      </root>
    </mxGraphModel>
  </diagram>
  <diagram id="zUdRjSH7_lpaa11w5HHU" name="Page-2">
    <mxGraphModel dx="1038" dy="548" grid="1" gridSize="10" guides="1" tooltips="1" connect="1" arrows="1" fold="1" page="0" pageScale="1" pageWidth="850" pageHeight="1100" math="0" shadow="0">
      <root>
        <mxCell id="KCXMWg9sT5vLdxTPLPOz-0" />
        <mxCell id="KCXMWg9sT5vLdxTPLPOz-1" parent="KCXMWg9sT5vLdxTPLPOz-0" />
        <mxCell id="KCXMWg9sT5vLdxTPLPOz-2" value="VDO-Link Device data" style="rounded=1;whiteSpace=wrap;html=1;" parent="KCXMWg9sT5vLdxTPLPOz-1" vertex="1">
          <mxGeometry x="320" y="40" width="200" height="40" as="geometry" />
        </mxCell>
        <mxCell id="KCXMWg9sT5vLdxTPLPOz-3" value="" style="endArrow=none;dashed=1;html=1;" parent="KCXMWg9sT5vLdxTPLPOz-1" edge="1">
          <mxGeometry width="50" height="50" relative="1" as="geometry">
            <mxPoint x="280" y="120" as="sourcePoint" />
            <mxPoint x="560" y="120" as="targetPoint" />
          </mxGeometry>
        </mxCell>
        <mxCell id="KCXMWg9sT5vLdxTPLPOz-4" value="ASN1 Encoder" style="text;html=1;strokeColor=none;fillColor=none;align=center;verticalAlign=middle;whiteSpace=wrap;rounded=0;" parent="KCXMWg9sT5vLdxTPLPOz-1" vertex="1">
          <mxGeometry x="560" y="110" width="120" height="20" as="geometry" />
        </mxCell>
        <mxCell id="KCXMWg9sT5vLdxTPLPOz-5" value="" style="rounded=1;whiteSpace=wrap;html=1;fillColor=none;" parent="KCXMWg9sT5vLdxTPLPOz-1" vertex="1">
          <mxGeometry x="280" y="160" width="280" height="120" as="geometry" />
        </mxCell>
        <mxCell id="KCXMWg9sT5vLdxTPLPOz-6" value="Header" style="rounded=1;whiteSpace=wrap;html=1;" parent="KCXMWg9sT5vLdxTPLPOz-1" vertex="1">
          <mxGeometry x="360" y="170" width="120" height="30" as="geometry" />
        </mxCell>
        <mxCell id="KCXMWg9sT5vLdxTPLPOz-9" value="Encoded VDO-Link Device data" style="rounded=1;whiteSpace=wrap;html=1;" parent="KCXMWg9sT5vLdxTPLPOz-1" vertex="1">
          <mxGeometry x="325" y="220" width="200" height="40" as="geometry" />
        </mxCell>
        <mxCell id="KCXMWg9sT5vLdxTPLPOz-10" value="ASN1 Frame" style="text;html=1;strokeColor=none;fillColor=none;align=center;verticalAlign=middle;whiteSpace=wrap;rounded=0;" parent="KCXMWg9sT5vLdxTPLPOz-1" vertex="1">
          <mxGeometry x="280" y="175" width="80" height="20" as="geometry" />
        </mxCell>
        <mxCell id="KCXMWg9sT5vLdxTPLPOz-11" value="" style="endArrow=none;dashed=1;html=1;" parent="KCXMWg9sT5vLdxTPLPOz-1" edge="1">
          <mxGeometry width="50" height="50" relative="1" as="geometry">
            <mxPoint x="280" y="320" as="sourcePoint" />
            <mxPoint x="560" y="320" as="targetPoint" />
          </mxGeometry>
        </mxCell>
        <mxCell id="KCXMWg9sT5vLdxTPLPOz-12" value="RSA 256 Encoding" style="text;html=1;strokeColor=none;fillColor=none;align=center;verticalAlign=middle;whiteSpace=wrap;rounded=0;" parent="KCXMWg9sT5vLdxTPLPOz-1" vertex="1">
          <mxGeometry x="560" y="310" width="260" height="20" as="geometry" />
        </mxCell>
        <mxCell id="KCXMWg9sT5vLdxTPLPOz-13" value="" style="rounded=1;whiteSpace=wrap;html=1;fillColor=none;" parent="KCXMWg9sT5vLdxTPLPOz-1" vertex="1">
          <mxGeometry x="280" y="370" width="280" height="100" as="geometry" />
        </mxCell>
        <mxCell id="KCXMWg9sT5vLdxTPLPOz-14" value="Hashed ASN1 Data" style="rounded=1;whiteSpace=wrap;html=1;fillColor=none;" parent="KCXMWg9sT5vLdxTPLPOz-1" vertex="1">
          <mxGeometry x="295" y="390" width="120" height="60" as="geometry" />
        </mxCell>
        <mxCell id="KCXMWg9sT5vLdxTPLPOz-15" value="Signature" style="rounded=1;whiteSpace=wrap;html=1;fillColor=none;" parent="KCXMWg9sT5vLdxTPLPOz-1" vertex="1">
          <mxGeometry x="430" y="390" width="120" height="60" as="geometry" />
        </mxCell>
        <mxCell id="KCXMWg9sT5vLdxTPLPOz-16" value="" style="endArrow=classic;html=1;exitX=0.5;exitY=1;exitDx=0;exitDy=0;entryX=0.5;entryY=0;entryDx=0;entryDy=0;" parent="KCXMWg9sT5vLdxTPLPOz-1" source="KCXMWg9sT5vLdxTPLPOz-2" target="KCXMWg9sT5vLdxTPLPOz-5" edge="1">
          <mxGeometry width="50" height="50" relative="1" as="geometry">
            <mxPoint x="600" y="340" as="sourcePoint" />
            <mxPoint x="650" y="290" as="targetPoint" />
          </mxGeometry>
        </mxCell>
        <mxCell id="KCXMWg9sT5vLdxTPLPOz-17" value="" style="endArrow=classic;html=1;exitX=0.5;exitY=1;exitDx=0;exitDy=0;" parent="KCXMWg9sT5vLdxTPLPOz-1" source="KCXMWg9sT5vLdxTPLPOz-5" target="KCXMWg9sT5vLdxTPLPOz-13" edge="1">
          <mxGeometry width="50" height="50" relative="1" as="geometry">
            <mxPoint x="600" y="340" as="sourcePoint" />
            <mxPoint x="650" y="290" as="targetPoint" />
          </mxGeometry>
        </mxCell>
        <mxCell id="KCXMWg9sT5vLdxTPLPOz-18" value="Cloud for PUB/SUB" style="rounded=1;whiteSpace=wrap;html=1;fillColor=none;" parent="KCXMWg9sT5vLdxTPLPOz-1" vertex="1">
          <mxGeometry x="160" y="560" width="520" height="40" as="geometry" />
        </mxCell>
        <mxCell id="KCXMWg9sT5vLdxTPLPOz-19" value="" style="endArrow=classic;html=1;exitX=0.5;exitY=1;exitDx=0;exitDy=0;" parent="KCXMWg9sT5vLdxTPLPOz-1" source="KCXMWg9sT5vLdxTPLPOz-13" target="KCXMWg9sT5vLdxTPLPOz-18" edge="1">
          <mxGeometry width="50" height="50" relative="1" as="geometry">
            <mxPoint x="570" y="560" as="sourcePoint" />
            <mxPoint x="620" y="510" as="targetPoint" />
          </mxGeometry>
        </mxCell>
        <mxCell id="KCXMWg9sT5vLdxTPLPOz-20" value="" style="endArrow=none;dashed=1;html=1;" parent="KCXMWg9sT5vLdxTPLPOz-1" edge="1">
          <mxGeometry width="50" height="50" relative="1" as="geometry">
            <mxPoint x="280" y="520" as="sourcePoint" />
            <mxPoint x="560" y="520" as="targetPoint" />
          </mxGeometry>
        </mxCell>
        <mxCell id="KCXMWg9sT5vLdxTPLPOz-21" value="TTL for session&amp;nbsp;" style="text;html=1;strokeColor=none;fillColor=none;align=center;verticalAlign=middle;whiteSpace=wrap;rounded=0;" parent="KCXMWg9sT5vLdxTPLPOz-1" vertex="1">
          <mxGeometry x="560" y="510" width="160" height="20" as="geometry" />
        </mxCell>
        <mxCell id="KCXMWg9sT5vLdxTPLPOz-22" value="" style="endArrow=none;dashed=1;html=1;" parent="KCXMWg9sT5vLdxTPLPOz-1" edge="1">
          <mxGeometry width="50" height="50" relative="1" as="geometry">
            <mxPoint x="270" y="780" as="sourcePoint" />
            <mxPoint x="550" y="780" as="targetPoint" />
          </mxGeometry>
        </mxCell>
        <mxCell id="KCXMWg9sT5vLdxTPLPOz-23" value="RSA 256 decoding in Google IOT Core" style="text;html=1;strokeColor=none;fillColor=none;align=center;verticalAlign=middle;whiteSpace=wrap;rounded=0;" parent="KCXMWg9sT5vLdxTPLPOz-1" vertex="1">
          <mxGeometry x="550" y="770" width="260" height="20" as="geometry" />
        </mxCell>
        <mxCell id="KCXMWg9sT5vLdxTPLPOz-24" value="RSA Public Key" style="rounded=1;whiteSpace=wrap;html=1;fillColor=none;" parent="KCXMWg9sT5vLdxTPLPOz-1" vertex="1">
          <mxGeometry x="760" y="400" width="120" height="40" as="geometry" />
        </mxCell>
        <mxCell id="KCXMWg9sT5vLdxTPLPOz-25" value="" style="endArrow=classic;html=1;entryX=0.5;entryY=1;entryDx=0;entryDy=0;exitX=0;exitY=0.5;exitDx=0;exitDy=0;" parent="KCXMWg9sT5vLdxTPLPOz-1" source="KCXMWg9sT5vLdxTPLPOz-24" target="KCXMWg9sT5vLdxTPLPOz-12" edge="1">
          <mxGeometry width="50" height="50" relative="1" as="geometry">
            <mxPoint x="850" y="540" as="sourcePoint" />
            <mxPoint x="900" y="490" as="targetPoint" />
            <Array as="points">
              <mxPoint x="690" y="420" />
            </Array>
          </mxGeometry>
        </mxCell>
        <mxCell id="KCXMWg9sT5vLdxTPLPOz-26" value="" style="endArrow=classic;html=1;exitX=0.5;exitY=1;exitDx=0;exitDy=0;entryX=0.5;entryY=0;entryDx=0;entryDy=0;" parent="KCXMWg9sT5vLdxTPLPOz-1" source="KCXMWg9sT5vLdxTPLPOz-24" target="KCXMWg9sT5vLdxTPLPOz-23" edge="1">
          <mxGeometry width="50" height="50" relative="1" as="geometry">
            <mxPoint x="850" y="540" as="sourcePoint" />
            <mxPoint x="900" y="490" as="targetPoint" />
            <Array as="points">
              <mxPoint x="820" y="640" />
              <mxPoint x="680" y="640" />
            </Array>
          </mxGeometry>
        </mxCell>
        <mxCell id="KCXMWg9sT5vLdxTPLPOz-32" value="" style="rounded=1;whiteSpace=wrap;html=1;fillColor=none;" parent="KCXMWg9sT5vLdxTPLPOz-1" vertex="1">
          <mxGeometry x="280" y="640" width="280" height="100" as="geometry" />
        </mxCell>
        <mxCell id="KCXMWg9sT5vLdxTPLPOz-33" value="Hashed ASN1 Data" style="rounded=1;whiteSpace=wrap;html=1;fillColor=none;" parent="KCXMWg9sT5vLdxTPLPOz-1" vertex="1">
          <mxGeometry x="295" y="660" width="120" height="60" as="geometry" />
        </mxCell>
        <mxCell id="KCXMWg9sT5vLdxTPLPOz-34" value="Signature" style="rounded=1;whiteSpace=wrap;html=1;fillColor=none;" parent="KCXMWg9sT5vLdxTPLPOz-1" vertex="1">
          <mxGeometry x="430" y="660" width="120" height="60" as="geometry" />
        </mxCell>
        <mxCell id="KCXMWg9sT5vLdxTPLPOz-35" value="" style="endArrow=classic;html=1;exitX=0.5;exitY=1;exitDx=0;exitDy=0;" parent="KCXMWg9sT5vLdxTPLPOz-1" source="KCXMWg9sT5vLdxTPLPOz-32" edge="1">
          <mxGeometry width="50" height="50" relative="1" as="geometry">
            <mxPoint x="570" y="830" as="sourcePoint" />
            <mxPoint x="420" y="830" as="targetPoint" />
          </mxGeometry>
        </mxCell>
        <mxCell id="KCXMWg9sT5vLdxTPLPOz-37" value="" style="endArrow=classic;html=1;exitX=0.5;exitY=1;exitDx=0;exitDy=0;" parent="KCXMWg9sT5vLdxTPLPOz-1" source="KCXMWg9sT5vLdxTPLPOz-18" target="KCXMWg9sT5vLdxTPLPOz-32" edge="1">
          <mxGeometry width="50" height="50" relative="1" as="geometry">
            <mxPoint x="440" y="720" as="sourcePoint" />
            <mxPoint x="490" y="670" as="targetPoint" />
          </mxGeometry>
        </mxCell>
        <mxCell id="KCXMWg9sT5vLdxTPLPOz-38" value="" style="rounded=1;whiteSpace=wrap;html=1;fillColor=none;" parent="KCXMWg9sT5vLdxTPLPOz-1" vertex="1">
          <mxGeometry x="280" y="830" width="280" height="120" as="geometry" />
        </mxCell>
        <mxCell id="KCXMWg9sT5vLdxTPLPOz-39" value="Header" style="rounded=1;whiteSpace=wrap;html=1;" parent="KCXMWg9sT5vLdxTPLPOz-1" vertex="1">
          <mxGeometry x="360" y="840" width="120" height="30" as="geometry" />
        </mxCell>
        <mxCell id="KCXMWg9sT5vLdxTPLPOz-40" value="Encoded VDO-Link Device data" style="rounded=1;whiteSpace=wrap;html=1;" parent="KCXMWg9sT5vLdxTPLPOz-1" vertex="1">
          <mxGeometry x="325" y="890" width="200" height="40" as="geometry" />
        </mxCell>
        <mxCell id="KCXMWg9sT5vLdxTPLPOz-41" value="ASN1 Frame" style="text;html=1;strokeColor=none;fillColor=none;align=center;verticalAlign=middle;whiteSpace=wrap;rounded=0;" parent="KCXMWg9sT5vLdxTPLPOz-1" vertex="1">
          <mxGeometry x="280" y="845" width="80" height="20" as="geometry" />
        </mxCell>
        <mxCell id="KCXMWg9sT5vLdxTPLPOz-42" value="" style="endArrow=none;dashed=1;html=1;" parent="KCXMWg9sT5vLdxTPLPOz-1" edge="1">
          <mxGeometry width="50" height="50" relative="1" as="geometry">
            <mxPoint x="280" y="990" as="sourcePoint" />
            <mxPoint x="560" y="990" as="targetPoint" />
          </mxGeometry>
        </mxCell>
        <mxCell id="KCXMWg9sT5vLdxTPLPOz-43" value="ASN1 Decoder" style="text;html=1;strokeColor=none;fillColor=none;align=center;verticalAlign=middle;whiteSpace=wrap;rounded=0;" parent="KCXMWg9sT5vLdxTPLPOz-1" vertex="1">
          <mxGeometry x="560" y="980" width="120" height="20" as="geometry" />
        </mxCell>
        <mxCell id="KCXMWg9sT5vLdxTPLPOz-44" value="" style="endArrow=classic;html=1;exitX=0.5;exitY=1;exitDx=0;exitDy=0;entryX=0.5;entryY=0;entryDx=0;entryDy=0;" parent="KCXMWg9sT5vLdxTPLPOz-1" edge="1">
          <mxGeometry width="50" height="50" relative="1" as="geometry">
            <mxPoint x="420" y="950" as="sourcePoint" />
            <mxPoint x="420" y="1030" as="targetPoint" />
          </mxGeometry>
        </mxCell>
        <mxCell id="KCXMWg9sT5vLdxTPLPOz-45" value="VDO-Link Device data" style="rounded=1;whiteSpace=wrap;html=1;" parent="KCXMWg9sT5vLdxTPLPOz-1" vertex="1">
          <mxGeometry x="320" y="1030" width="200" height="40" as="geometry" />
        </mxCell>
      </root>
    </mxGraphModel>
  </diagram>
</mxfile>
